<svg aria-hidden="true" style="position: absolute; width: 0; height: 0; overflow: hidden;" version="1.1" xmlns="http://www.w3.org/2000/svg" xmlns:xlink="http://www.w3.org/1999/xlink">
<defs>
<symbol id="icon-heard-full" viewBox="0 0 36 32">
<path stroke-linejoin="round" stroke-linecap="round" stroke-miterlimit="4" stroke-width="2.9091" d="M31.853 3.994c-0.805-0.805-1.76-1.444-2.812-1.88s-2.179-0.66-3.318-0.66-2.266 0.224-3.318 0.66c-1.052 0.436-2.007 1.075-2.812 1.88l-1.67 1.67-1.67-1.67c-1.626-1.626-3.831-2.539-6.13-2.539s-4.504 0.913-6.13 2.539c-1.626 1.626-2.539 3.831-2.539 6.13s0.913 4.504 2.539 6.13l13.93 13.93 13.93-13.93c0.805-0.805 1.444-1.76 1.88-2.812s0.66-2.179 0.66-3.318c0-1.138-0.224-2.266-0.66-3.318s-1.074-2.007-1.88-2.812z"></path>
</symbol>
<symbol id="icon-user" viewBox="0 0 32 32">
<path d="M16 5.333c1.415 0 2.771 0.562 3.771 1.562s1.562 2.357 1.562 3.771-0.562 2.771-1.562 3.771c-1 1-2.357 1.562-3.771 1.562s-2.771-0.562-3.771-1.562c-1-1-1.562-2.357-1.562-3.771s0.562-2.771 1.562-3.771c1-1 2.357-1.562 3.771-1.562zM16 18.667c5.893 0 10.667 2.387 10.667 5.333v2.667h-21.333v-2.667c0-2.947 4.773-5.333 10.667-5.333z"></path>
</symbol>
<symbol id="icon-heard-empty" viewBox="0 0 36 32">
<path stroke-linejoin="round" stroke-linecap="round" stroke-miterlimit="4" stroke-width="2.9091" d="M31.853 3.994c-0.805-0.805-1.76-1.444-2.812-1.88s-2.179-0.66-3.318-0.66-2.266 0.224-3.318 0.66c-1.052 0.436-2.007 1.075-2.812 1.88l-1.67 1.67-1.67-1.67c-1.626-1.626-3.831-2.539-6.13-2.539s-4.504 0.913-6.13 2.539c-1.626 1.626-2.539 3.831-2.539 6.13s0.913 4.504 2.539 6.13l13.93 13.93 13.93-13.93c0.805-0.805 1.444-1.76 1.88-2.812s0.66-2.179 0.66-3.318c0-1.138-0.224-2.266-0.66-3.318s-1.074-2.007-1.88-2.812z"></path>
</symbol>
<symbol id="icon-eye" viewBox="0 0 32 32">
<path stroke-linejoin="round" stroke-linecap="round" stroke-miterlimit="4" stroke-width="3.2" d="M1.333 16c0 0 5.333-10.667 14.667-10.667s14.667 10.667 14.667 10.667c0 0-5.333 10.667-14.667 10.667s-14.667-10.667-14.667-10.667z"></path>
<path stroke-linejoin="round" stroke-linecap="round" stroke-miterlimit="4" stroke-width="3.2" d="M16 20c2.209 0 4-1.791 4-4s-1.791-4-4-4c-2.209 0-4 1.791-4 4s1.791 4 4 4z"></path>
</symbol>
<symbol id="icon-eye-off" viewBox="0 0 32 32">
<path stroke-linejoin="round" stroke-linecap="round" stroke-miterlimit="4" stroke-width="3.2" d="M23.92 23.92c-2.279 1.737-5.055 2.7-7.92 2.747-9.333 0-14.667-10.667-14.667-10.667 1.659-3.091 3.959-5.791 6.747-7.92M13.2 5.653c0.918-0.215 1.857-0.322 2.8-0.32 9.333 0 14.667 10.667 14.667 10.667-0.809 1.514-1.775 2.94-2.88 4.253M18.827 18.827c-0.366 0.393-0.808 0.708-1.298 0.927s-1.020 0.336-1.557 0.346-1.071-0.089-1.569-0.291c-0.498-0.201-0.95-0.5-1.33-0.88s-0.679-0.832-0.88-1.33c-0.201-0.498-0.3-1.032-0.29-1.569s0.127-1.067 0.346-1.557 0.534-0.932 0.927-1.298"></path>
<path stroke-linejoin="round" stroke-linecap="round" stroke-miterlimit="4" stroke-width="3.2" d="M1.333 1.333l29.333 29.333"></path>
</symbol>
<symbol id="icon-map-pin" viewBox="0 0 32 32">
<path stroke-linejoin="round" stroke-linecap="round" stroke-miterlimit="4" stroke-width="3" d="M28 13.333c0 9.333-12 17.333-12 17.333s-12-8-12-17.333c0-3.183 1.264-6.235 3.515-8.485s5.303-3.515 8.485-3.515c3.183 0 6.235 1.264 8.485 3.515s3.515 5.303 3.515 8.485z"></path>
<path stroke-linejoin="round" stroke-linecap="round" stroke-miterlimit="4" stroke-width="3" d="M16 17.333c2.209 0 4-1.791 4-4s-1.791-4-4-4c-2.209 0-4 1.791-4 4s1.791 4 4 4z"></path>
</symbol>
<symbol id="icon-Logo" viewBox="0 0 225 32">
<path d="M0.001 0.568h4.408l10.886 17.564h0.067v-17.564h3.974v23.841h-4.408l-10.852-17.53h-0.1v17.53h-3.974v-23.841zM37.522 20.569c0 0.467 0.056 0.801 0.167 1.002 0.134 0.2 0.378 0.301 0.735 0.301 0.111 0 0.245 0 0.401 0s0.334-0.022 0.534-0.067v2.638c-0.134 0.045-0.312 0.089-0.534 0.134-0.2 0.067-0.412 0.122-0.634 0.167s-0.445 0.078-0.668 0.1c-0.223 0.022-0.412 0.033-0.568 0.033-0.779 0-1.425-0.156-1.937-0.467s-0.846-0.857-1.002-1.636c-0.757 0.735-1.692 1.269-2.805 1.603-1.091 0.334-2.148 0.501-3.172 0.501-0.779 0-1.525-0.111-2.237-0.334-0.712-0.2-1.347-0.501-1.903-0.902-0.534-0.423-0.968-0.946-1.302-1.569-0.312-0.646-0.467-1.391-0.467-2.237 0-1.069 0.189-1.937 0.568-2.605 0.401-0.668 0.913-1.191 1.536-1.569 0.646-0.378 1.358-0.646 2.137-0.801 0.801-0.178 1.603-0.312 2.404-0.401 0.69-0.134 1.347-0.223 1.97-0.267 0.623-0.067 1.169-0.167 1.636-0.3 0.49-0.134 0.868-0.334 1.135-0.601 0.289-0.289 0.434-0.712 0.434-1.269 0-0.49-0.122-0.89-0.367-1.202-0.223-0.312-0.512-0.545-0.868-0.701-0.334-0.178-0.712-0.289-1.135-0.334-0.423-0.067-0.824-0.1-1.202-0.1-1.069 0-1.948 0.223-2.638 0.668s-1.080 1.135-1.169 2.070h-3.807c0.067-1.113 0.334-2.037 0.801-2.771s1.057-1.325 1.77-1.77c0.735-0.445 1.558-0.757 2.471-0.935s1.848-0.267 2.805-0.267c0.846 0 1.681 0.089 2.504 0.267s1.558 0.467 2.204 0.868c0.668 0.401 1.202 0.924 1.603 1.569 0.401 0.623 0.601 1.391 0.601 2.304v8.882zM33.716 15.761c-0.579 0.378-1.291 0.612-2.137 0.701-0.846 0.067-1.692 0.178-2.538 0.334-0.401 0.067-0.79 0.167-1.169 0.301-0.378 0.111-0.712 0.278-1.002 0.501-0.289 0.2-0.523 0.479-0.701 0.835-0.156 0.334-0.234 0.746-0.234 1.235 0 0.423 0.122 0.779 0.367 1.069s0.534 0.523 0.868 0.701c0.356 0.156 0.735 0.267 1.135 0.334 0.423 0.067 0.801 0.1 1.135 0.1 0.423 0 0.879-0.056 1.369-0.167s0.946-0.301 1.369-0.568c0.445-0.267 0.813-0.601 1.102-1.002 0.289-0.423 0.434-0.935 0.434-1.536v-2.838zM40.95 7.146h3.606v2.538l0.067 0.067c0.579-0.957 1.336-1.703 2.271-2.237 0.935-0.557 1.97-0.835 3.105-0.835 1.892 0 3.384 0.49 4.474 1.469s1.636 2.449 1.636 4.408v11.854h-3.807v-10.852c-0.045-1.358-0.334-2.337-0.868-2.938-0.534-0.623-1.369-0.935-2.504-0.935-0.646 0-1.224 0.122-1.736 0.367-0.512 0.223-0.946 0.545-1.302 0.968-0.356 0.401-0.634 0.879-0.835 1.436s-0.301 1.146-0.301 1.77v10.184h-3.807v-17.263zM59.457 7.146h3.606v2.538l0.067 0.067c0.579-0.957 1.336-1.703 2.271-2.237 0.935-0.557 1.97-0.835 3.105-0.835 1.892 0 3.384 0.49 4.474 1.469s1.636 2.449 1.636 4.408v11.854h-3.807v-10.852c-0.045-1.358-0.334-2.337-0.868-2.938-0.534-0.623-1.369-0.935-2.504-0.935-0.646 0-1.224 0.122-1.736 0.367-0.512 0.223-0.946 0.545-1.302 0.968-0.356 0.401-0.634 0.879-0.835 1.436s-0.301 1.146-0.301 1.77v10.184h-3.807v-17.263zM76.059 7.146h4.174l4.508 12.889h0.067l4.374-12.889h3.974l-6.712 18.198c-0.312 0.779-0.623 1.525-0.935 2.237-0.289 0.712-0.657 1.336-1.102 1.87-0.423 0.557-0.957 0.991-1.603 1.302-0.646 0.334-1.469 0.501-2.471 0.501-0.89 0-1.77-0.067-2.638-0.2v-3.206c0.312 0.045 0.612 0.089 0.902 0.134 0.289 0.067 0.59 0.1 0.902 0.1 0.445 0 0.813-0.056 1.102-0.167s0.523-0.278 0.701-0.501c0.2-0.2 0.367-0.445 0.501-0.735s0.256-0.623 0.367-1.002l0.434-1.336-6.545-17.196zM91.845 19.901h4.641v4.508h-4.641v-4.508zM103.443 16.462c0 0.913 0.156 1.692 0.467 2.337s0.746 1.18 1.302 1.603c0.557 0.401 1.191 0.701 1.903 0.902 0.735 0.178 1.525 0.267 2.371 0.267 0.913 0 1.692-0.1 2.337-0.301 0.646-0.223 1.169-0.501 1.569-0.835s0.69-0.712 0.868-1.135c0.178-0.445 0.267-0.89 0.267-1.336 0-0.913-0.211-1.581-0.634-2.003-0.401-0.445-0.846-0.757-1.336-0.935-0.846-0.312-1.837-0.601-2.972-0.868-1.113-0.289-2.493-0.657-4.141-1.102-1.024-0.267-1.881-0.612-2.571-1.035-0.668-0.445-1.202-0.935-1.603-1.469s-0.69-1.102-0.868-1.703c-0.156-0.601-0.234-1.213-0.234-1.837 0-1.202 0.245-2.237 0.735-3.105 0.512-0.89 1.18-1.625 2.003-2.204s1.759-1.002 2.805-1.269c1.046-0.289 2.104-0.434 3.172-0.434 1.247 0 2.415 0.167 3.506 0.501 1.113 0.312 2.081 0.79 2.905 1.436 0.846 0.646 1.514 1.447 2.003 2.404 0.49 0.935 0.735 2.026 0.735 3.272h-4.174c-0.111-1.536-0.634-2.616-1.569-3.239-0.935-0.646-2.126-0.968-3.573-0.968-0.49 0-0.991 0.056-1.503 0.167-0.512 0.089-0.979 0.256-1.402 0.501-0.423 0.223-0.779 0.534-1.069 0.935-0.267 0.401-0.401 0.902-0.401 1.503 0 0.846 0.256 1.514 0.768 2.003 0.534 0.467 1.224 0.824 2.070 1.069 0.089 0.022 0.434 0.122 1.035 0.301 0.623 0.156 1.313 0.334 2.070 0.534s1.491 0.401 2.204 0.601c0.735 0.178 1.258 0.312 1.569 0.401 0.779 0.245 1.458 0.579 2.037 1.002s1.057 0.913 1.436 1.469c0.401 0.534 0.69 1.113 0.868 1.736 0.2 0.623 0.301 1.247 0.301 1.87 0 1.336-0.278 2.482-0.835 3.439-0.534 0.935-1.247 1.703-2.137 2.304s-1.903 1.035-3.039 1.302c-1.135 0.289-2.293 0.434-3.473 0.434-1.358 0-2.638-0.167-3.84-0.501s-2.248-0.846-3.139-1.536c-0.89-0.69-1.603-1.569-2.137-2.638-0.534-1.091-0.813-2.371-0.835-3.84h4.174zM133.009 14.258c-0.045-0.601-0.178-1.18-0.401-1.736-0.2-0.557-0.49-1.035-0.868-1.436-0.356-0.423-0.801-0.757-1.336-1.002-0.512-0.267-1.091-0.401-1.736-0.401-0.668 0-1.28 0.122-1.837 0.367-0.534 0.223-1.002 0.545-1.402 0.968-0.378 0.401-0.69 0.879-0.935 1.436-0.223 0.557-0.345 1.158-0.367 1.803h8.882zM124.127 16.762c0 0.668 0.089 1.313 0.267 1.937 0.2 0.623 0.49 1.169 0.868 1.636s0.857 0.846 1.436 1.135c0.579 0.267 1.269 0.401 2.070 0.401 1.113 0 2.003-0.234 2.671-0.701 0.69-0.49 1.202-1.213 1.536-2.17h3.606c-0.2 0.935-0.545 1.77-1.035 2.504s-1.080 1.358-1.77 1.87c-0.69 0.49-1.469 0.857-2.337 1.102-0.846 0.267-1.736 0.401-2.671 0.401-1.358 0-2.56-0.223-3.606-0.668s-1.937-1.069-2.671-1.87c-0.712-0.801-1.258-1.759-1.636-2.872-0.356-1.113-0.534-2.337-0.534-3.673 0-1.224 0.189-2.382 0.568-3.473 0.401-1.113 0.957-2.081 1.67-2.905 0.735-0.846 1.614-1.514 2.638-2.003s2.182-0.735 3.473-0.735c1.358 0 2.571 0.289 3.64 0.868 1.091 0.557 1.992 1.302 2.705 2.237s1.224 2.015 1.536 3.239c0.334 1.202 0.423 2.449 0.267 3.74h-12.689zM139.041 7.146h3.573v3.339h0.067c0.111-0.467 0.323-0.924 0.634-1.369 0.334-0.445 0.723-0.846 1.169-1.202 0.467-0.378 0.979-0.679 1.536-0.902s1.124-0.334 1.703-0.334c0.445 0 0.746 0.011 0.902 0.033 0.178 0.022 0.356 0.045 0.534 0.067v3.673c-0.267-0.045-0.545-0.078-0.835-0.1-0.267-0.045-0.534-0.067-0.801-0.067-0.646 0-1.258 0.134-1.837 0.401-0.557 0.245-1.046 0.623-1.469 1.135-0.423 0.49-0.757 1.102-1.002 1.837s-0.367 1.58-0.367 2.538v8.214h-3.807v-17.263zM148.409 7.146h4.141l4.374 13.256h0.067l4.207-13.256h3.94l-6.177 17.263h-4.274l-6.278-17.263zM166.861 0.568h3.807v3.606h-3.807v-3.606zM166.861 7.146h3.807v17.263h-3.807v-17.263zM185.8 12.922c-0.156-1.069-0.59-1.87-1.302-2.404-0.69-0.557-1.569-0.835-2.638-0.835-0.49 0-1.013 0.089-1.569 0.267-0.557 0.156-1.069 0.467-1.536 0.935-0.467 0.445-0.857 1.080-1.169 1.903-0.312 0.801-0.467 1.859-0.467 3.172 0 0.712 0.078 1.425 0.234 2.137 0.178 0.712 0.445 1.347 0.801 1.903 0.378 0.557 0.857 1.013 1.436 1.369 0.579 0.334 1.28 0.501 2.104 0.501 1.113 0 2.026-0.345 2.738-1.035 0.735-0.69 1.191-1.658 1.369-2.905h3.807c-0.356 2.248-1.213 3.974-2.571 5.176-1.336 1.18-3.117 1.77-5.343 1.77-1.358 0-2.56-0.223-3.606-0.668-1.024-0.467-1.892-1.091-2.605-1.87-0.712-0.801-1.258-1.747-1.636-2.838-0.356-1.091-0.534-2.271-0.534-3.539 0-1.291 0.178-2.504 0.534-3.64s0.89-2.115 1.603-2.938c0.712-0.846 1.592-1.503 2.638-1.97 1.069-0.49 2.315-0.735 3.74-0.735 1.002 0 1.948 0.134 2.838 0.401 0.913 0.245 1.714 0.623 2.404 1.135 0.712 0.512 1.291 1.158 1.736 1.937s0.712 1.703 0.801 2.771h-3.807zM203.887 14.258c-0.045-0.601-0.178-1.18-0.401-1.736-0.2-0.557-0.49-1.035-0.868-1.436-0.356-0.423-0.801-0.757-1.336-1.002-0.512-0.267-1.091-0.401-1.736-0.401-0.668 0-1.28 0.122-1.837 0.367-0.534 0.223-1.002 0.545-1.402 0.968-0.378 0.401-0.69 0.879-0.935 1.436-0.223 0.557-0.345 1.158-0.367 1.803h8.882zM195.005 16.762c0 0.668 0.089 1.313 0.267 1.937 0.2 0.623 0.49 1.169 0.868 1.636s0.857 0.846 1.436 1.135c0.579 0.267 1.269 0.401 2.070 0.401 1.113 0 2.003-0.234 2.671-0.701 0.69-0.49 1.202-1.213 1.536-2.17h3.606c-0.2 0.935-0.545 1.77-1.035 2.504s-1.080 1.358-1.77 1.87c-0.69 0.49-1.469 0.857-2.337 1.102-0.846 0.267-1.736 0.401-2.671 0.401-1.358 0-2.56-0.223-3.606-0.668s-1.937-1.069-2.671-1.87c-0.712-0.801-1.258-1.759-1.636-2.872-0.356-1.113-0.534-2.337-0.534-3.673 0-1.224 0.189-2.382 0.568-3.473 0.401-1.113 0.957-2.081 1.67-2.905 0.735-0.846 1.614-1.514 2.638-2.003s2.182-0.735 3.473-0.735c1.358 0 2.571 0.289 3.64 0.868 1.091 0.557 1.992 1.302 2.705 2.237s1.224 2.015 1.536 3.239c0.334 1.202 0.423 2.449 0.267 3.74h-12.689zM212.792 18.866c0.111 1.113 0.534 1.892 1.269 2.337s1.614 0.668 2.638 0.668c0.356 0 0.757-0.022 1.202-0.067 0.467-0.067 0.902-0.178 1.302-0.334s0.723-0.378 0.968-0.668c0.267-0.312 0.39-0.712 0.367-1.202s-0.2-0.89-0.534-1.202c-0.334-0.312-0.768-0.557-1.302-0.735-0.512-0.2-1.102-0.367-1.77-0.501s-1.347-0.278-2.037-0.434c-0.712-0.156-1.402-0.345-2.070-0.568-0.646-0.223-1.235-0.523-1.77-0.902-0.512-0.378-0.924-0.857-1.235-1.436-0.312-0.601-0.467-1.336-0.467-2.204 0-0.935 0.223-1.714 0.668-2.337 0.467-0.646 1.046-1.158 1.736-1.536 0.712-0.401 1.491-0.679 2.337-0.835 0.868-0.156 1.692-0.234 2.471-0.234 0.89 0 1.736 0.1 2.538 0.301 0.824 0.178 1.558 0.479 2.204 0.902 0.668 0.423 1.213 0.979 1.636 1.67 0.445 0.668 0.723 1.48 0.835 2.438h-3.974c-0.178-0.913-0.601-1.525-1.269-1.837-0.646-0.312-1.391-0.467-2.237-0.467-0.267 0-0.59 0.022-0.968 0.067-0.356 0.045-0.701 0.134-1.035 0.267-0.312 0.111-0.579 0.289-0.801 0.534-0.223 0.223-0.334 0.523-0.334 0.902 0 0.467 0.156 0.846 0.467 1.135 0.334 0.289 0.757 0.534 1.269 0.735 0.534 0.178 1.135 0.334 1.803 0.467s1.358 0.278 2.070 0.434c0.69 0.156 1.369 0.345 2.037 0.568s1.258 0.523 1.77 0.902c0.534 0.378 0.957 0.857 1.269 1.436 0.334 0.579 0.501 1.291 0.501 2.137 0 1.024-0.234 1.892-0.701 2.605s-1.080 1.291-1.837 1.736c-0.735 0.445-1.558 0.768-2.471 0.968s-1.814 0.301-2.705 0.301c-1.091 0-2.104-0.122-3.039-0.367-0.913-0.245-1.714-0.612-2.404-1.102-0.668-0.512-1.202-1.135-1.603-1.87-0.378-0.757-0.579-1.647-0.601-2.671h3.807z"></path>
</symbol>
</defs>
</svg>
